<svg version="1.1" xmlns="http://www.w3.org/2000/svg" xmlns:xlink="http://www.w3.org/1999/xlink" width="1600.000000pt" height="1600.000000pt" viewBox="0,0,256,256"><g fill="#70c6c7" fill-rule="nonzero" stroke="none" stroke-width="1" stroke-linecap="butt" stroke-linejoin="miter" stroke-miterlimit="10" stroke-dasharray="" stroke-dashoffset="0" font-family="none" font-weight="none" font-size="none" text-anchor="none" style="mix-blend-mode: normal"><g transform="translate(0,-0.014) scale(0.16,0.16)"><g transform="translate(0,1600) scale(0.1,-0.1)"><path d="M6388,13990c-338,-40 -679,-221 -944,-502c-377,-401 -703,-1065 -1014,-2063c-58,-186 -199,-678 -236,-822l-18,-73l-101,-30c-521,-159 -999,-375 -1330,-601c-301,-205 -502,-416 -620,-654c-189,-379 -157,-779 93,-1155c62,-93 229,-272 337,-360c240,-196 608,-402 980,-547c94,-36 173,-69 177,-72c4,-4 21,-51 36,-106c16,-55 41,-131 56,-169c14,-38 25,-70 24,-71c-2,-1 -57,-35 -123,-75c-357,-215 -665,-460 -996,-790c-284,-283 -464,-501 -744,-900l-164,-233l22,-17c65,-50 509,-357 1222,-845c440,-301 804,-551 808,-555c5,-4 -143,-309 -327,-679l-336,-671h4810h4810l-336,671c-184,370 -332,675 -327,679c4,4 368,254 808,555c713,488 1157,795 1222,845l22,17l-164,233c-280,399 -460,617 -744,900c-331,330 -639,575 -996,790c-66,40 -121,73 -122,74c-1,1 20,64 45,141c26,77 52,155 57,174c10,32 16,36 175,98c185,72 460,203 607,289c577,337 883,723 934,1178c37,330 -97,674 -373,956c-346,355 -956,678 -1708,904l-85,26l-79,273c-309,1061 -604,1818 -893,2286c-338,548 -764,851 -1269,902c-196,20 -383,-5 -724,-96c-374,-101 -560,-134 -790,-142c-221,-7 -328,9 -719,108c-351,89 -482,114 -656,129c-136,11 -210,11 -307,0zM6804,12935c405,-108 664,-154 996,-176c364,-23 659,12 1216,145c390,93 418,99 488,94c90,-5 163,-45 264,-142c228,-219 439,-598 642,-1156c37,-102 77,-216 89,-255c116,-370 171,-559 306,-1042c86,-307 158,-564 160,-571c6,-16 -104,-71 -236,-117c-294,-103 -665,-159 -1289,-196c-281,-16 -1974,-23 -2385,-10c-982,33 -1497,102 -1865,253c-52,22 -113,47 -135,56c-22,8 -42,17 -43,18c-2,2 10,32 28,67c17,35 36,95 42,133c21,140 210,807 345,1219c263,803 525,1330 789,1586c120,115 199,158 298,159c30,0 142,-25 290,-65zM4121,9408c64,-125 205,-286 343,-390c92,-69 297,-172 446,-223c350,-120 901,-210 1560,-255c682,-46 2376,-51 3050,-10c668,41 1162,116 1520,232c150,48 366,150 458,215c143,101 306,282 373,415c16,32 35,58 42,58c38,0 465,-180 597,-252c213,-117 419,-286 470,-387c40,-79 10,-143 -122,-266c-265,-245 -840,-500 -1523,-675c-685,-176 -1445,-286 -2390,-347c-386,-25 -1504,-25 -1890,0c-1344,87 -2385,283 -3175,599c-169,68 -438,206 -563,288c-172,114 -301,247 -314,324c-15,94 161,271 417,418c153,88 622,298 667,298c7,0 22,-19 34,-42zM5598,6681c109,-22 218,-43 245,-46c41,-6 48,-11 53,-34c32,-151 95,-305 165,-407c128,-186 337,-331 565,-390c132,-35 345,-44 481,-20c237,41 435,162 549,334c58,86 101,210 119,335l6,47h219h219l6,-47c42,-312 225,-534 520,-632c126,-41 231,-54 393,-48c290,10 525,113 709,310c76,82 112,133 163,236c34,68 74,187 94,282c5,23 12,28 53,34c27,3 137,24 247,46c109,22 200,38 203,35c7,-7 -45,-330 -77,-474c-183,-819 -580,-1582 -1085,-2087c-336,-336 -692,-540 -1095,-627c-91,-19 -134,-22 -330,-22c-206,0 -236,2 -350,26c-69,15 -161,39 -205,53c-528,172 -1011,590 -1403,1213c-316,503 -555,1148 -647,1744c-27,176 -28,178 -19,178c3,0 94,-18 202,-39zM11672,5891c173,-116 370,-269 558,-435c136,-120 500,-484 500,-500c-1,-12 -1406,-984 -1686,-1166c-93,-60 -170,-116 -172,-124c-2,-7 69,-160 157,-340l159,-326h-790h-791l79,56c323,231 675,593 929,954c258,368 493,845 659,1340c66,197 166,547 166,582c0,20 42,68 59,68c5,0 83,-49 173,-109zM4574,5856c172,-659 436,-1268 761,-1756c264,-398 599,-745 975,-1010c58,-40 109,-77 115,-82c5,-4 -356,-8 -802,-8h-811l159,326c88,180 159,333 157,340c-2,8 -79,64 -172,124c-285,186 -1685,1154 -1686,1166c0,20 377,392 531,524c205,176 334,275 520,400l162,108l32,-15c30,-14 34,-23 59,-117z"></path></g></g></g></svg>